<svg width="100" height="100" viewBox="0 0 100 100" fill="none" xmlns="http://www.w3.org/2000/svg">
<path d="M76.4755 28.0107H23.2584V85.1274H76.4755V28.0107Z" fill="url(#paint0_linear)"/>
<path d="M23.0382 28.0107C23.1024 28.0107 23.1666 28.0383 23.2584 28.0658C23.2584 47.068 23.2584 66.0701 23.2584 85.0998C19.1386 85.421 15.6612 84.3841 12.8994 81.7233C10.945 79.8332 9.99998 77.6127 9.99998 75.0987C9.99998 66.1986 9.99998 57.3077 9.99998 48.4076C9.99998 45.0127 9.9908 41.6178 9.9908 38.2229C9.9908 34.1215 12.2021 31.1395 16.2668 29.1209C18.3587 28.0933 20.6801 27.9373 23.0382 28.0107Z" fill="url(#paint1_linear)"/>
<path d="M67.1809 28.0016C69.5573 28.0016 69.7958 28.0016 72.1631 28.0016C72.1631 47.068 72.1631 66.0701 72.1631 85.109C56.0053 85.109 43.7837 85.109 27.5708 85.109C27.5708 66.0793 27.5708 47.0771 27.5708 28.0199C29.9381 28.0199 30.4519 28.0199 32.865 28.0199C32.865 27.7813 32.865 27.5978 32.865 27.4235C32.865 25.3774 32.8742 23.3221 32.8558 21.276C32.8375 19.8447 33.2228 18.5968 34.3422 17.6242C35.1313 16.9452 36.0397 16.5966 37.0673 16.5966C40.2512 16.5874 43.4259 16.5874 46.6097 16.5874C51.9589 16.5874 57.3174 16.5966 62.6666 16.5874C64.0704 16.5874 65.2357 17.0462 66.1532 18.1105C66.8873 18.9638 67.1625 19.9639 67.1625 21.0833C67.1533 23.2395 67.1625 25.3958 67.1625 27.552C67.1533 27.6712 67.1625 27.8089 67.1809 28.0016ZM38.6088 28.0016C38.829 28.0016 38.9942 28.0016 39.1593 28.0016C41.6917 28.0016 44.2333 28.0016 46.7657 28.0016C51.5002 28.0016 56.2438 28.0016 60.9783 28.0107C61.3545 28.0107 61.4371 27.8914 61.4371 27.5336C61.4187 25.9279 61.4371 24.3222 61.4371 22.7165C61.4371 22.5881 61.4187 22.4596 61.4004 22.322C53.7848 22.322 46.2152 22.322 38.6088 22.322C38.6088 24.2121 38.6088 26.0656 38.6088 28.0016Z" fill="white"/>
<mask id="mask0" style="mask-type:alpha" maskUnits="userSpaceOnUse" x="27" y="16" width="46" height="70">
<path d="M67.1808 28.0016C69.5573 28.0016 69.7958 28.0016 72.1631 28.0016C72.1631 47.068 72.1631 66.0701 72.1631 85.109C56.0053 85.109 43.7837 85.109 27.5708 85.109C27.5708 66.0793 27.5708 47.0771 27.5708 28.0199C29.938 28.0199 30.4519 28.0199 32.865 28.0199C32.865 27.7813 32.865 27.5978 32.865 27.4235C32.865 25.3774 32.8742 23.3221 32.8558 21.276C32.8375 19.8447 33.2228 18.5968 34.3422 17.6242C35.1313 16.9452 36.0397 16.5966 37.0673 16.5966C40.2512 16.5874 43.4258 16.5874 46.6097 16.5874C51.9589 16.5874 57.3173 16.5966 62.6666 16.5874C64.0704 16.5874 65.2357 17.0462 66.1532 18.1105C66.8872 18.9638 67.1625 19.9639 67.1625 21.0833C67.1533 23.2395 67.1625 25.3958 67.1625 27.552C67.1533 27.6712 67.1625 27.8089 67.1808 28.0016ZM38.6088 28.0016C38.829 28.0016 38.9941 28.0016 39.1593 28.0016C41.6917 28.0016 44.2333 28.0016 46.7657 28.0016C51.5002 28.0016 56.2438 28.0016 60.9783 28.0107C61.3545 28.0107 61.4371 27.8914 61.4371 27.5336C61.4187 25.9279 61.4371 24.3222 61.4371 22.7165C61.4371 22.5881 61.4187 22.4596 61.4004 22.322C53.7848 22.322 46.2151 22.322 38.6088 22.322C38.6088 24.2121 38.6088 26.0656 38.6088 28.0016Z" fill="#F7F9FC"/>
</mask>
<g mask="url(#mask0)">
<path d="M68.096 14H31V28.02H68.096V14Z" fill="url(#paint2_linear)"/>
</g>
<path d="M90 38.0762C90 34.2959 87.9356 31.4791 84.2654 29.433C82.0083 28.176 79.4483 27.9374 76.8242 27.9925C76.4205 28.0016 76.4755 28.2127 76.4755 28.4329C76.4755 35.0391 76.4755 41.6362 76.4755 48.2425C76.4755 59.8493 76.4755 71.447 76.4663 83.0538C76.4663 83.7236 76.4663 84.3934 76.4663 85.1183C78.1179 85.1733 79.6869 85.1825 81.2284 84.8155C86.44 83.586 89.9908 79.7048 89.9908 75.1263C90.0092 62.7854 90 50.4262 90 38.0762Z" fill="url(#paint3_linear)"/>
<path d="M54.2161 60.7852C54.2161 61.9688 54.2161 63.0882 54.2161 64.2168C54.2161 65.4921 54.2161 66.7675 54.2161 68.0337C54.2161 68.7953 53.8307 69.199 53.0783 69.199C51.0047 69.2082 48.9311 69.2082 46.8574 69.199C46.1693 69.199 45.7839 68.7677 45.7839 68.0429C45.7839 65.7674 45.7839 63.4919 45.7839 61.2164C45.7839 61.088 45.7839 60.9503 45.7839 60.7852C45.6096 60.7852 45.4811 60.7852 45.3435 60.7852C43.1047 60.7852 40.8567 60.7852 38.618 60.7852C37.7279 60.7852 37.3609 60.4273 37.3609 59.5373C37.3609 57.5646 37.3609 55.5919 37.3609 53.6192C37.3609 52.72 37.7188 52.3622 38.6088 52.3622C40.8384 52.3622 43.068 52.3622 45.2976 52.3622C45.4444 52.3622 45.5821 52.3622 45.7747 52.3622C45.7747 52.2154 45.7747 52.0961 45.7747 51.9768C45.7747 49.7013 45.7747 47.4258 45.7747 45.1504C45.7747 44.3062 46.1509 43.9392 46.9951 43.9392C48.9678 43.9392 50.9405 43.9392 52.9132 43.9392C53.8399 43.9392 54.1977 44.2879 54.1977 45.2329C54.2069 47.4901 54.1977 49.738 54.1977 51.9952C54.1977 52.1053 54.1977 52.2154 54.1977 52.3714C54.3445 52.3714 54.473 52.3714 54.5923 52.3714C56.8678 52.3714 59.1432 52.3714 61.4187 52.3805C62.2537 52.3805 62.6115 52.7476 62.6115 53.5825C62.6115 55.5644 62.6115 57.5463 62.6115 59.5282C62.6115 60.4365 62.2629 60.7852 61.3729 60.7852C59.1065 60.7852 56.8402 60.7852 54.5831 60.7944C54.4913 60.7852 54.3812 60.7852 54.2161 60.7852Z" fill="url(#paint4_linear)"/>
<defs>
<linearGradient id="paint0_linear" x1="23.2597" y1="56.5656" x2="76.473" y2="56.5656" gradientUnits="userSpaceOnUse">
<stop stop-color="#B0F4FF"/>
<stop offset="1" stop-color="#69DCFC"/>
</linearGradient>
<linearGradient id="paint1_linear" x1="9.99998" y1="56.5746" x2="23.2597" y2="56.5746" gradientUnits="userSpaceOnUse">
<stop stop-color="#6CBCFC"/>
<stop offset="1" stop-color="#458DFC"/>
</linearGradient>
<linearGradient id="paint2_linear" x1="30.9962" y1="21.0085" x2="68.0944" y2="21.0085" gradientUnits="userSpaceOnUse">
<stop stop-color="#6CBCFC"/>
<stop offset="1" stop-color="#458DFC"/>
</linearGradient>
<linearGradient id="paint3_linear" x1="76.4686" y1="56.569" x2="90.0007" y2="56.569" gradientUnits="userSpaceOnUse">
<stop stop-color="#6CBCFC"/>
<stop offset="1" stop-color="#458DFC"/>
</linearGradient>
<linearGradient id="paint4_linear" x1="37.3666" y1="56.5783" x2="62.6299" y2="56.5783" gradientUnits="userSpaceOnUse">
<stop stop-color="#6CBCFC"/>
<stop offset="1" stop-color="#458DFC"/>
</linearGradient>
</defs>
</svg>
