<svg width="100" height="100" viewBox="0 0 100 100" fill="none" xmlns="http://www.w3.org/2000/svg">
<path d="M80.8574 33.4806L80.6657 73.2815L80.6338 80.9797C80.6018 87.0968 74.7882 92.0319 67.633 92L31.8889 91.8403C24.7497 91.7924 18.9681 86.8093 19 80.6762L19.2236 33.1772C19.2396 28.226 23.0727 24.0415 28.3113 22.652L28.3273 20.0966V18.7869L71.8814 18.9946L71.8654 22.8596C77.0881 24.313 80.8733 28.5135 80.8574 33.4806Z" fill="url(#paint0_linear)"/>
<path d="M75.1236 8.77283V9.1242L75.0917 13.2768L75.0598 17.3495V17.8446C75.0598 18.6112 74.4209 19.2341 73.6543 19.2341H73.3189L71.2106 19.2182L68.8948 19.2022L66.7866 19.1862L64.4707 19.1702L62.3305 19.1383L60.0147 19.1223L57.9064 19.1064L55.5746 19.0904L53.4504 19.0744L51.1345 19.0584L49.0263 19.0265L46.7105 19.0105L44.6022 18.9945L42.2704 18.9786L40.1462 18.9626L37.8463 18.9466L35.7381 18.9307L33.4222 18.9147L31.298 18.8987L28.9822 18.8828L26.858 18.8668H26.5226C25.7559 18.8668 25.133 18.2279 25.133 17.4613V17.4453V17.0939L25.1969 8.88463V8.38952C25.1969 7.62289 25.8358 7 26.6184 7H26.9538L31.3938 7.03194L35.8339 7.06389L37.9581 7.07986L40.274 7.09583L42.3822 7.1118L46.8063 7.15971L49.1221 7.17569L51.2304 7.19166L53.5462 7.20763L55.6545 7.2236L57.9703 7.23957L60.0786 7.25554L62.3944 7.27151L64.5026 7.28749L66.8504 7.31943L68.9587 7.3354L71.2745 7.35137L73.3987 7.36734H73.7341C74.5167 7.38331 75.1236 8.0062 75.1236 8.77283Z" fill="url(#paint1_linear)"/>
<path d="M75.1236 9.14019L75.0917 13.2768L75.0598 17.3495L73.1592 17.3335L70.6357 17.3176L68.3198 17.3016H65.7804L63.4645 17.2856L60.941 17.2697L58.6251 17.2537H56.0857L53.7698 17.2377L51.2304 17.2217L48.9305 17.2058H46.391L44.0752 17.1898L41.5357 17.1738L39.2198 17.1579H36.6964L34.3805 17.1419L31.841 17.1259L29.5252 17.1099H27.0017L25.133 17.094L25.1969 8.88464L29.637 8.90061L34.4763 8.93256L36.7922 8.94853L39.3316 8.9645H41.6475L46.4869 8.99644L49.0263 9.01242H51.3422L53.8816 9.02839L56.1815 9.04436L58.721 9.06033H61.0368L63.5763 9.0763L65.8762 9.09227L68.4156 9.10824H70.7315L73.271 9.12422L75.1236 9.14019Z" fill="url(#paint2_linear)"/>
<path d="M80.8105 41.8841L19.1768 41.5927L19.0475 68.9198L80.6813 69.2112L80.8105 41.8841Z" fill="#F7F9FC"/>
<path d="M80.8215 41.884L19.1877 41.5927L19.1644 46.5119L80.7982 46.8032L80.8215 41.884Z" fill="#FBFCF7"/>
<path d="M43.2127 52.5803L39.2358 52.5644L39.2518 48.5715L33.7736 48.5555L33.7576 52.5324L29.7807 52.5165L29.7488 57.9787L33.7257 57.9947L33.7097 61.9875L39.1879 62.0035L39.2039 58.0266L43.1808 58.0426L43.2127 52.5803Z" fill="url(#paint3_linear)"/>
<path d="M70.2364 53.906L50.5276 53.8102C50.0006 53.8102 49.5693 53.379 49.5693 52.8519V52.4047C49.5693 51.8776 50.0006 51.4464 50.5276 51.4464L70.2364 51.5422C70.7634 51.5422 71.1947 51.9735 71.1947 52.5005V52.9477C71.1947 53.4748 70.7634 53.906 70.2364 53.906Z" fill="url(#paint4_linear)"/>
<path opacity="0.5" d="M70.2204 59.7675L50.5116 59.6717C49.9846 59.6717 49.5534 59.2405 49.5534 58.7134V58.2662C49.5534 57.7392 49.9846 57.3079 50.5116 57.3079L70.2204 57.4038C70.7475 57.4038 71.1787 57.835 71.1787 58.362V58.8092C71.1787 59.3363 70.7475 59.7675 70.2204 59.7675Z" fill="url(#paint5_linear)"/>
<path opacity="0.08" d="M25.133 8.77286V9.12423L25.165 13.2768L25.1969 17.3335V17.8287C25.1969 18.5953 25.8358 19.2182 26.6024 19.2182H26.9378L29.062 19.2022L31.3779 19.1862L33.4861 19.1703L35.802 19.1543L37.9102 19.1383L40.226 19.1223L42.3343 19.1064L44.6501 19.0904L46.7743 19.0744L49.0902 19.0585L51.1984 19.0425L53.5143 19.0265L55.6225 19.0105L57.9384 18.9946L60.0626 18.9786L62.3784 18.9626L64.4867 18.9467L66.8025 18.9307L68.9108 18.9147L71.2266 18.8987L73.3508 18.8828H73.6862C74.4528 18.8828 75.0757 18.2439 75.0757 17.4773V17.4613V17.1099C50.3679 18.18 26.5226 7.36737 26.5226 7.36737C25.7559 7.38334 25.133 8.00623 25.133 8.77286Z" fill="#1A6FB5"/>
<defs>
<linearGradient id="paint0_linear" x1="19" y1="18.3333" x2="76.1389" y2="97.1944" gradientUnits="userSpaceOnUse">
<stop stop-color="#6CBCFC"/>
<stop offset="1" stop-color="#458DFC"/>
</linearGradient>
<linearGradient id="paint1_linear" x1="-610.93" y1="-32.931" x2="-8.60407" y2="9.02206" gradientUnits="userSpaceOnUse">
<stop stop-color="#B0F4FF"/>
<stop offset="0.0525488" stop-color="#A9F2FF"/>
<stop offset="0.2879" stop-color="#8DE8FE"/>
<stop offset="0.5247" stop-color="#79E1FD"/>
<stop offset="0.7618" stop-color="#6DDDFC"/>
<stop offset="1" stop-color="#69DCFC"/>
</linearGradient>
<linearGradient id="paint2_linear" x1="25.1399" y1="13.1131" x2="75.1258" y2="13.1131" gradientUnits="userSpaceOnUse">
<stop stop-color="#B0F4FF"/>
<stop offset="0.0525488" stop-color="#A9F2FF"/>
<stop offset="0.2879" stop-color="#8DE8FE"/>
<stop offset="0.5247" stop-color="#79E1FD"/>
<stop offset="0.7618" stop-color="#6DDDFC"/>
<stop offset="1" stop-color="#69DCFC"/>
</linearGradient>
<linearGradient id="paint3_linear" x1="40.9779" y1="50.0953" x2="31.5975" y2="60.9124" gradientUnits="userSpaceOnUse">
<stop stop-color="#6CBCFC"/>
<stop offset="1" stop-color="#458DFC"/>
</linearGradient>
<linearGradient id="paint4_linear" x1="71.3847" y1="52.671" x2="47.8866" y2="52.671" gradientUnits="userSpaceOnUse">
<stop stop-color="#6CBCFC"/>
<stop offset="1" stop-color="#458DFC"/>
</linearGradient>
<linearGradient id="paint5_linear" x1="49.5519" y1="58.5322" x2="71.179" y2="58.5322" gradientUnits="userSpaceOnUse">
<stop stop-color="#6CBCFC"/>
<stop offset="1" stop-color="#458DFC"/>
</linearGradient>
</defs>
</svg>
