<svg width="100" height="100" viewBox="0 0 100 100" fill="none" xmlns="http://www.w3.org/2000/svg">
<path d="M83.0754 92.4482C83.0754 94.9272 81.069 96.942 78.5899 96.942L20.585 97.0083C18.6117 97.0083 16.9369 95.7398 16.3316 93.9737C16.1741 93.5177 16.0912 93.0368 16.0912 92.5311L16 8.88167C16 6.40261 18.0065 4.38786 20.4855 4.38786L73.7479 4.32982L78.4904 4.32153C80.9695 4.32153 82.9842 6.32799 82.9842 8.80704L83.0754 92.4482Z" fill="url(#paint0_linear)"/>
<path d="M77.0643 91.9673L22.1023 92.0254C20.7674 92.0254 19.6896 90.9475 19.6896 89.6126L19.6067 11.767C19.6067 10.4322 20.6845 9.3543 22.0194 9.3543L76.9731 9.29626C78.308 9.29626 79.3859 10.3741 79.3859 11.709L79.4688 89.5546C79.4771 90.8812 78.3992 91.9673 77.0643 91.9673Z" fill="white"/>
<path d="M69.3453 15.7136L29.2575 15.7633C27.9309 15.7633 26.8448 14.6855 26.8448 13.3589L26.8365 6.67623C26.8365 5.34964 27.9144 4.2635 29.241 4.2635L69.337 4.22205C70.6635 4.22205 71.7497 5.2999 71.7497 6.62648L71.758 13.3091C71.7497 14.6357 70.6718 15.7136 69.3453 15.7136ZM29.241 5.49059C28.5942 5.49059 28.0636 6.02123 28.0636 6.66793L28.0719 13.3506C28.0719 13.9973 28.6025 14.5279 29.2492 14.5279L69.3453 14.4865C69.992 14.4865 70.5226 13.9559 70.5226 13.3091L70.5143 6.62648C70.5143 5.97977 69.9837 5.44914 69.337 5.44914L29.241 5.49059Z" fill="url(#paint1_linear)"/>
<path d="M68.2094 7.11564L30.7748 7.1571C30.3603 7.1571 30.0286 6.82545 30.0286 6.41089V2.78766C30.0286 2.3731 30.3603 2.04146 30.7748 2.04146L68.2011 2C68.6157 2 68.9473 2.33165 68.9473 2.7462V6.36944C68.9556 6.78399 68.624 7.11564 68.2094 7.11564Z" fill="url(#paint2_linear)"/>
<path d="M30.808 7.15714L68.1762 7.11568C68.6073 7.11568 68.9556 6.76746 68.9556 6.33632V4.56201L30.0203 4.60347V6.37777C30.0203 6.80891 30.3768 7.15714 30.808 7.15714Z" fill="#58D6F4"/>
<path d="M43.9412 83.2118L40.7076 63.6447L38.0876 72.1597L30.5924 72.168C30.1364 72.168 29.7716 71.8031 29.7716 71.3471C29.7716 70.8911 30.1364 70.5263 30.5924 70.5263L36.8854 70.518L41.2051 56.4977L44.4387 76.1145L48.634 62.6414L50.8643 69.0256L55.8887 56.8459L60.7722 76.1643L62.6129 70.0205L68.0021 70.0123C68.4581 70.0123 68.8229 70.3771 68.8229 70.8331C68.8229 71.2891 68.4581 71.6539 68.0021 71.6539L63.8317 71.6622L60.6396 82.3163L55.5156 62.0528L50.7316 73.6355L48.7169 67.8731L43.9412 83.2118Z" fill="#58D6F4"/>
<path d="M38.3861 45.4871L27.848 45.4954C26.1483 45.4954 24.7554 44.1107 24.7554 42.411L24.7388 27.6777C24.7388 25.978 26.1235 24.5851 27.8231 24.5851L38.3612 24.5768C40.0609 24.5768 41.4538 25.9614 41.4538 27.6611L41.4704 42.3945C41.4704 44.0942 40.0858 45.4788 38.3861 45.4871ZM27.8148 25.4805C26.6043 25.4805 25.626 26.4672 25.626 27.6777L25.6426 42.411C25.6426 43.6216 26.6292 44.5999 27.8397 44.5999L38.3778 44.5916C39.5883 44.5916 40.5666 43.605 40.5666 42.3945L40.5501 27.6611C40.5501 26.4506 39.5634 25.4722 38.3529 25.4722L27.8148 25.4805Z" fill="url(#paint3_linear)"/>
<path d="M33.1046 42.6598C38.0876 42.6515 39.6381 39.7745 39.6381 39.7745C39.4142 39.4926 39.1323 39.2439 38.7509 38.9951C37.4409 38.1411 36.3879 37.7763 35.9485 37.4115C35.5008 37.055 35.252 36.5327 35.252 36.5327L34.9784 36.6985C34.9784 36.6985 34.8126 36.1264 34.9038 35.2558C34.9038 35.2558 35.2935 35.1563 35.5837 33.838C36.048 33.9292 36.5952 32.7519 36.3382 32.3207C36.1724 32.0388 35.9734 32.0637 35.8324 32.1301C35.9734 31.5414 36.6118 28.283 33.0963 28.283C29.5809 28.283 30.2193 31.5414 30.3686 32.1301C30.2276 32.0637 30.0286 32.0388 29.8628 32.3207C29.6058 32.7519 30.1613 33.9292 30.6256 33.838C30.9158 35.1563 31.3137 35.2475 31.3137 35.2475C31.4132 36.1098 31.2391 36.6902 31.2391 36.6902L30.9655 36.5244C30.9655 36.5244 30.7168 37.0384 30.2691 37.4032C29.8213 37.768 28.7767 38.1411 27.4667 38.9951C27.0853 39.2439 26.7951 39.4926 26.5795 39.7745C26.5712 39.7911 28.1299 42.6681 33.1046 42.6598Z" fill="url(#paint4_linear)"/>
<path d="M65.921 29.2779L45.6326 29.3028C45.2512 29.3028 44.9444 28.996 44.9444 28.6146V28.4986C44.9444 28.1172 45.2512 27.8104 45.6326 27.8104L65.921 27.7855C66.3024 27.7855 66.6092 28.0923 66.6092 28.4737V28.5898C66.6092 28.9712 66.2941 29.2779 65.921 29.2779Z" fill="url(#paint5_linear)"/>
<path d="M58.459 33.1416L45.6326 33.1582C45.2512 33.1582 44.9444 32.8514 44.9444 32.47V32.3539C44.9444 31.9725 45.2512 31.6658 45.6326 31.6658L58.459 31.6492C58.8404 31.6492 59.1471 31.9559 59.1471 32.3373V32.4534C59.1471 32.8348 58.8404 33.1416 58.459 33.1416Z" fill="url(#paint6_linear)"/>
<path opacity="0.6" d="M72.9187 37.7348L45.6409 37.768C45.2595 37.768 44.9527 37.4612 44.9527 37.0798V36.9638C44.9527 36.5824 45.2595 36.2756 45.6409 36.2756L72.9187 36.2424C73.3001 36.2424 73.6069 36.5492 73.6069 36.9306V37.0467C73.5986 37.4281 73.2918 37.7348 72.9187 37.7348Z" fill="url(#paint7_linear)"/>
<path opacity="0.6" d="M72.3301 50.6441L26.8282 50.6939C26.4386 50.6939 26.1152 50.3788 26.1152 49.9808V49.9145C26.1152 49.5248 26.4303 49.2015 26.8282 49.2015L72.3301 49.1517C72.7198 49.1517 73.0431 49.4668 73.0431 49.8648V49.9311C73.0431 50.3291 72.7198 50.6441 72.3301 50.6441Z" fill="url(#paint8_linear)"/>
<path opacity="0.6" d="M72.9187 42.2452L45.6409 42.2784C45.2595 42.2784 44.9527 41.9716 44.9527 41.5902V41.4741C44.9527 41.0927 45.2595 40.786 45.6409 40.786L72.9187 40.7528C73.3001 40.7528 73.6069 41.0596 73.6069 41.441V41.5571C73.6069 41.9384 73.3001 42.2452 72.9187 42.2452Z" fill="url(#paint9_linear)"/>
<defs>
<linearGradient id="paint0_linear" x1="6.71132" y1="36.748" x2="92.3641" y2="64.5782" gradientUnits="userSpaceOnUse">
<stop stop-color="#6CBCFC"/>
<stop offset="0.1713" stop-color="#5EABFC"/>
<stop offset="0.4084" stop-color="#509AFC"/>
<stop offset="0.6698" stop-color="#4890FC"/>
<stop offset="1" stop-color="#458DFC"/>
</linearGradient>
<linearGradient id="paint1_linear" x1="10.775" y1="-19.375" x2="71.7514" y2="9.98973" gradientUnits="userSpaceOnUse">
<stop stop-color="#CFE9FF"/>
<stop offset="1" stop-color="#A1D6FB"/>
</linearGradient>
<linearGradient id="paint2_linear" x1="30.0191" y1="4.57952" x2="68.9549" y2="4.57952" gradientUnits="userSpaceOnUse">
<stop stop-color="#B0F4FF"/>
<stop offset="1" stop-color="#69DCFC"/>
</linearGradient>
<linearGradient id="paint3_linear" x1="30.1349" y1="31.2075" x2="39.9155" y2="43.8334" gradientUnits="userSpaceOnUse">
<stop stop-color="#6CBCFC"/>
<stop offset="1" stop-color="#458DFC"/>
</linearGradient>
<linearGradient id="paint4_linear" x1="29.0741" y1="32.0293" x2="38.8548" y2="44.6553" gradientUnits="userSpaceOnUse">
<stop stop-color="#B0F4FF"/>
<stop offset="0.0994384" stop-color="#A1EFFE"/>
<stop offset="0.2994" stop-color="#88E7FD"/>
<stop offset="0.5095" stop-color="#77E1FD"/>
<stop offset="0.7344" stop-color="#6CDDFC"/>
<stop offset="1" stop-color="#69DCFC"/>
</linearGradient>
<linearGradient id="paint5_linear" x1="44.9456" y1="28.551" x2="66.6048" y2="28.564" gradientUnits="userSpaceOnUse">
<stop stop-color="#6CBCFC"/>
<stop offset="1" stop-color="#458DFC"/>
</linearGradient>
<linearGradient id="paint6_linear" x1="44.9495" y1="32.4037" x2="59.1463" y2="32.4037" gradientUnits="userSpaceOnUse">
<stop stop-color="#6CBCFC"/>
<stop offset="1" stop-color="#458DFC"/>
</linearGradient>
<linearGradient id="paint7_linear" x1="44.9542" y1="37.0098" x2="73.6023" y2="37.0098" gradientUnits="userSpaceOnUse">
<stop stop-color="#6CBCFC"/>
<stop offset="1" stop-color="#458DFC"/>
</linearGradient>
<linearGradient id="paint8_linear" x1="26.1148" y1="49.9272" x2="73.0408" y2="49.9272" gradientUnits="userSpaceOnUse">
<stop stop-color="#6CBCFC"/>
<stop offset="1" stop-color="#458DFC"/>
</linearGradient>
<linearGradient id="paint9_linear" x1="44.9588" y1="41.5191" x2="73.6069" y2="41.5191" gradientUnits="userSpaceOnUse">
<stop stop-color="#6CBCFC"/>
<stop offset="1" stop-color="#458DFC"/>
</linearGradient>
</defs>
</svg>
