<svg width="100" height="100" viewBox="0 0 100 100" fill="none" xmlns="http://www.w3.org/2000/svg">
<path d="M60.2156 48.3151L51.1378 56.9802L12.8034 93.5661C11.797 94.5289 10.506 95.0103 9.21497 95.0103C7.80196 95.0103 6.38894 94.4367 5.36222 93.2998C3.33927 91.0669 3.60358 87.5743 5.93149 85.6692L51.1378 48.8272L56.1189 44.7712L60.2156 48.3151Z" fill="url(#paint0_linear)"/>
<path d="M50.7413 57.4206L41.8058 65.9423L40.9824 57.185L45.872 53.2007L50.7413 57.4206Z" fill="#3A81D6" fill-opacity="0.8"/>
<path d="M95.978 34.9078C95.978 51.4288 82.6815 64.8259 66.2946 64.8259C55.9664 64.8259 46.8682 59.5101 41.5516 51.4391C38.4308 46.7071 36.6111 41.0225 36.6111 34.9078C36.6111 18.3868 49.9077 5 66.2946 5C73.6951 5 80.4552 7.72448 85.6498 12.2311C91.9728 17.7211 95.978 25.8433 95.978 34.9078Z" fill="url(#paint1_linear)"/>
<path d="M66.2946 58.2093C79.0671 58.2093 89.4213 47.7768 89.4213 34.9078C89.4213 22.0387 79.0671 11.6063 66.2946 11.6063C53.5221 11.6063 43.1679 22.0387 43.1679 34.9078C43.1679 47.7768 53.5221 58.2093 66.2946 58.2093Z" fill="white"/>
<path opacity="0.06" d="M95.978 34.9078C95.978 51.4288 82.6815 64.8259 66.2946 64.8259C55.9664 64.8259 46.8682 59.5101 41.5516 51.4391C75.0268 48.6941 83.8505 20.1178 85.66 12.2311C91.9728 17.7211 95.978 25.8433 95.978 34.9078Z" fill="#1A6FB5" fill-opacity="0.5"/>
<path d="M66.2946 34.959C68.9783 34.959 71.1537 32.7672 71.1537 30.0632C71.1537 27.3592 68.9783 25.1673 66.2946 25.1673C63.6109 25.1673 61.4354 27.3592 61.4354 30.0632C61.4354 32.7672 63.6007 34.959 66.2946 34.959ZM66.2946 37.407C63.0518 37.407 56.5763 39.0458 56.5763 42.3028V43.5319C56.5763 44.2079 57.1252 44.761 57.7962 44.761H74.8133C75.4842 44.761 76.0332 44.2079 76.0332 43.5319V42.3028C76.0128 39.056 69.5374 37.407 66.2946 37.407Z" fill="url(#paint2_linear)"/>
<defs>
<linearGradient id="paint0_linear" x1="9.67475" y1="89.3265" x2="57.9244" y2="45.7922" gradientUnits="userSpaceOnUse">
<stop stop-color="#67C3F3"/>
<stop offset="1" stop-color="#5A98F2"/>
</linearGradient>
<linearGradient id="paint1_linear" x1="54.0173" y1="7.11336" x2="76.7818" y2="57.9053" gradientUnits="userSpaceOnUse">
<stop stop-color="#67C3F3"/>
<stop offset="1" stop-color="#5A98F2"/>
</linearGradient>
<linearGradient id="paint2_linear" x1="59.2686" y1="33.3947" x2="76.9196" y2="41.9391" gradientUnits="userSpaceOnUse">
<stop stop-color="#B0F4FF"/>
<stop offset="0.071077" stop-color="#A6F1FF"/>
<stop offset="0.2937" stop-color="#8BE8FD"/>
<stop offset="0.5209" stop-color="#78E1FD"/>
<stop offset="0.7536" stop-color="#6DDDFC"/>
<stop offset="1" stop-color="#69DCFC"/>
</linearGradient>
</defs>
</svg>
