<svg width="100" height="100" viewBox="0 0 100 100" fill="none" xmlns="http://www.w3.org/2000/svg">
<path d="M80.9697 3H18.3297C17.0414 3 16 4.02822 16 5.30017V95.7074C16 96.9794 17.0414 98.0076 18.3297 98.0076H80.9697C82.258 98.0076 83.2994 96.9794 83.2994 95.7074V5.30017C83.2917 4.02822 82.2502 3 80.9697 3Z" fill="url(#paint0_linear)"/>
<path d="M76.858 7.09766H22.4337C21.184 7.09766 20.1657 8.10303 20.1657 9.34451V84.0923C20.1657 85.3338 21.184 86.3316 22.4337 86.3316H76.858C78.1154 86.3316 79.126 85.3262 79.126 84.0923V9.34451C79.126 8.10303 78.1154 7.09766 76.858 7.09766Z" fill="white"/>
<path d="M60.7737 42.636H38.5257C37.5074 42.636 36.682 41.8211 36.682 40.8157V18.8422C36.682 17.8369 37.5074 17.0219 38.5257 17.0219H60.7737C61.792 17.0219 62.6174 17.8369 62.6174 18.8422V40.8081C62.6174 41.8135 61.792 42.636 60.7737 42.636Z" fill="url(#paint1_linear)"/>
<path d="M49.6497 95.5475C51.5413 95.5475 53.0748 94.0335 53.0748 92.1658C53.0748 90.2981 51.5413 88.7841 49.6497 88.7841C47.758 88.7841 46.2245 90.2981 46.2245 92.1658C46.2245 94.0335 47.758 95.5475 49.6497 95.5475Z" fill="white"/>
<path d="M69.0357 54.015H30.256C29.2763 54.015 28.474 53.2229 28.474 52.2556C28.474 51.2883 29.2763 50.4962 30.256 50.4962H69.028C70.0077 50.4962 70.81 51.2883 70.81 52.2556C70.81 53.2229 70.0154 54.015 69.0357 54.015Z" fill="url(#paint2_linear)"/>
<path opacity="0.6" d="M62.4708 63.764H29.608C28.9831 63.764 28.4817 63.2613 28.4817 62.652V62.5302C28.4817 61.9132 28.9909 61.4182 29.608 61.4182H62.4708C63.0957 61.4182 63.5971 61.9208 63.5971 62.5302V62.652C63.6048 63.2613 63.0957 63.764 62.4708 63.764Z" fill="url(#paint3_linear)"/>
<path opacity="0.3" d="M56.2146 69.9562H29.5C28.9369 69.9562 28.474 69.4992 28.474 68.9432V68.6081C28.474 68.0521 28.9369 67.5951 29.5 67.5951H56.2068C56.77 67.5951 57.2328 68.0521 57.2328 68.6081V68.9432C57.2328 69.4992 56.77 69.9562 56.2146 69.9562Z" fill="url(#paint4_linear)"/>
<path opacity="0.6" d="M59.578 75.6914H29.5617C28.9677 75.6914 28.4817 75.2116 28.4817 74.6251V74.4119C28.4817 73.8254 28.9677 73.3456 29.5617 73.3456H59.578C60.172 73.3456 60.658 73.8254 60.658 74.4119V74.6251C60.658 75.204 60.172 75.6914 59.578 75.6914Z" fill="url(#paint5_linear)"/>
<path d="M49.7166 29.1208C51.9441 29.1208 53.7498 27.3141 53.7498 25.0854C53.7498 22.8566 51.9441 21.05 49.7166 21.05C47.489 21.05 45.6833 22.8566 45.6833 25.0854C45.6833 27.3141 47.4805 29.1208 49.7166 29.1208ZM49.7166 31.1385C47.0249 31.1385 41.65 32.4892 41.65 35.1739V36.1869C41.65 36.7441 42.1056 37.2 42.6625 37.2H56.7875C57.3444 37.2 57.8 36.7441 57.8 36.1869V35.1739C57.7831 32.4977 52.4082 31.1385 49.7166 31.1385Z" fill="white"/>
<defs>
<linearGradient id="paint0_linear" x1="20.077" y1="48.0301" x2="83.3445" y2="53.4539" gradientUnits="userSpaceOnUse">
<stop stop-color="#6CBCFC"/>
<stop offset="1" stop-color="#458DFC"/>
</linearGradient>
<linearGradient id="paint1_linear" x1="34.6708" y1="22.2924" x2="64.4654" y2="37.6685" gradientUnits="userSpaceOnUse">
<stop stop-color="#B0F4FF"/>
<stop offset="0.0856277" stop-color="#A3F0FE"/>
<stop offset="0.2972" stop-color="#8AE7FD"/>
<stop offset="0.5161" stop-color="#77E1FD"/>
<stop offset="0.7451" stop-color="#6DDDFC"/>
<stop offset="1" stop-color="#69DCFC"/>
</linearGradient>
<linearGradient id="paint2_linear" x1="70.8137" y1="52.257" x2="28.4813" y2="52.257" gradientUnits="userSpaceOnUse">
<stop stop-color="#6CBCFC"/>
<stop offset="1" stop-color="#458DFC"/>
</linearGradient>
<linearGradient id="paint3_linear" x1="63.6026" y1="62.5877" x2="28.4813" y2="62.5877" gradientUnits="userSpaceOnUse">
<stop stop-color="#6CBCFC"/>
<stop offset="1" stop-color="#458DFC"/>
</linearGradient>
<linearGradient id="paint4_linear" x1="57.2336" y1="68.7799" x2="28.4813" y2="68.7799" gradientUnits="userSpaceOnUse">
<stop stop-color="#6CBCFC"/>
<stop offset="1" stop-color="#458DFC"/>
</linearGradient>
<linearGradient id="paint5_linear" x1="60.6574" y1="74.5124" x2="28.4813" y2="74.5124" gradientUnits="userSpaceOnUse">
<stop stop-color="#6CBCFC"/>
<stop offset="1" stop-color="#458DFC"/>
</linearGradient>
</defs>
</svg>
