<svg width="100" height="100" viewBox="0 0 100 100" fill="none" xmlns="http://www.w3.org/2000/svg">
<path d="M84.4225 6.31029V92.7055C84.4225 95.0896 82.4963 97.0158 80.1122 97.0158H19.3103C16.9262 97 15 95.0738 15 92.7055V6.31029C15 3.92621 16.9262 2 19.3103 2H80.128C82.4963 2 84.4225 3.92621 84.4225 6.31029Z" fill="url(#paint0_linear)"/>
<path d="M80 9.94666V89.0533C80 91.2363 78.3075 93 76.2126 93H22.7874C20.6925 92.9855 19 91.2218 19 89.0533V9.94666C19 7.76371 20.6925 6 22.7874 6H76.2265C78.3075 6 80 7.76371 80 9.94666Z" fill="url(#paint1_linear)"/>
<path d="M41.8722 20.2516V24.183C41.8722 24.4672 41.6511 24.6882 41.367 24.6882H36.5514C36.2672 24.6882 36.0462 24.9093 36.0462 25.1935V30.009C36.0462 30.2932 35.8252 30.5142 35.541 30.5142H31.6096C31.3254 30.5142 31.1044 30.2932 31.1044 30.009V25.1935C31.1044 24.9093 30.8833 24.6882 30.5991 24.6882H25.7994C25.5152 24.6882 25.2942 24.4672 25.2942 24.183V20.2516C25.2942 19.9674 25.5152 19.7464 25.7994 19.7464H30.6149C30.8991 19.7464 31.1202 19.5254 31.1202 19.2412V14.4256C31.1202 14.1415 31.3412 13.9204 31.6254 13.9204H35.5567C35.8409 13.9204 36.062 14.1415 36.062 14.4256V19.2412C36.062 19.5254 36.283 19.7464 36.5672 19.7464H41.367C41.6511 19.7464 41.8722 19.9674 41.8722 20.2516Z" fill="url(#paint2_linear)"/>
<path opacity="0.5" d="M73.5757 41.6767H25.8468C25.531 41.6767 25.2784 41.4241 25.2784 41.1083V39.2926C25.2784 38.9769 25.531 38.7242 25.8468 38.7242H73.5757C73.8915 38.7242 74.1441 38.9769 74.1441 39.2926V41.1083C74.1283 41.4241 73.8915 41.6767 73.5757 41.6767Z" fill="url(#paint3_linear)"/>
<path d="M73.5757 19.0517H49.8928C49.577 19.0517 49.3244 18.7991 49.3244 18.4833V16.6834C49.3244 16.3676 49.577 16.115 49.8928 16.115H73.5757C73.8915 16.115 74.1441 16.3676 74.1441 16.6834V18.4991C74.1283 18.7991 73.8915 19.0517 73.5757 19.0517Z" fill="url(#paint4_linear)"/>
<path opacity="0.5" d="M66.5656 26.7249H49.8928C49.577 26.7249 49.3244 26.4723 49.3244 26.1565V24.3408C49.3244 24.0251 49.577 23.7725 49.8928 23.7725H66.5656C66.8813 23.7725 67.1339 24.0251 67.1339 24.3408V26.1565C67.1182 26.4723 66.8813 26.7249 66.5656 26.7249Z" fill="url(#paint5_linear)"/>
<path opacity="0.5" d="M73.5757 50.2973H25.8468C25.531 50.2973 25.2784 50.0447 25.2784 49.7289V47.9132C25.2784 47.5975 25.531 47.3448 25.8468 47.3448H73.5757C73.8915 47.3448 74.1441 47.5975 74.1441 47.9132V49.7289C74.1283 50.0447 73.8915 50.2973 73.5757 50.2973Z" fill="url(#paint6_linear)"/>
<path opacity="0.5" d="M73.5757 58.9179H25.8468C25.531 58.9179 25.2784 58.6653 25.2784 58.3495V56.5338C25.2784 56.2181 25.531 55.9655 25.8468 55.9655H73.5757C73.8915 55.9655 74.1441 56.2181 74.1441 56.5338V58.3653C74.1283 58.6653 73.8915 58.9179 73.5757 58.9179Z" fill="url(#paint7_linear)"/>
<path opacity="0.5" d="M73.5757 67.5543H25.8468C25.531 67.5543 25.2784 67.3017 25.2784 66.9859V65.1702C25.2784 64.8544 25.531 64.6018 25.8468 64.6018H73.5757C73.8915 64.6018 74.1441 64.8544 74.1441 65.1702V66.9859C74.1283 67.3017 73.8915 67.5543 73.5757 67.5543Z" fill="url(#paint8_linear)"/>
<path opacity="0.5" d="M73.5757 76.1749H25.8468C25.531 76.1749 25.2784 75.9223 25.2784 75.6065V73.7908C25.2784 73.475 25.531 73.2224 25.8468 73.2224H73.5757C73.8915 73.2224 74.1441 73.475 74.1441 73.7908V75.6065C74.1283 75.9223 73.8915 76.1749 73.5757 76.1749Z" fill="url(#paint9_linear)"/>
<path opacity="0.5" d="M73.5757 84.7955H25.8468C25.531 84.7955 25.2784 84.5429 25.2784 84.2271V82.4114C25.2784 82.0956 25.531 81.843 25.8468 81.843H73.5757C73.8915 81.843 74.1441 82.0956 74.1441 82.4114V84.2271C74.1283 84.5429 73.8915 84.7955 73.5757 84.7955Z" fill="url(#paint10_linear)"/>
<path opacity="0.1" d="M84.4225 6.31029V92.7055C84.4225 95.0896 82.4963 97.0158 80.1122 97.0158H19.3103C16.9262 97 15 95.0738 15 92.7055V91.2056C52.0874 75.8906 69.3601 17.1571 73.2599 2H80.1122C82.4963 2 84.4225 3.92621 84.4225 6.31029Z" fill="#1A6FB5" fill-opacity="0.4"/>
<defs>
<linearGradient id="paint0_linear" x1="110" y1="128" x2="9" y2="-3.5" gradientUnits="userSpaceOnUse">
<stop offset="0.3061" stop-color="#5BA7FC"/>
<stop offset="1" stop-color="#69B8FC"/>
</linearGradient>
<linearGradient id="paint1_linear" x1="23.6241" y1="9.04564" x2="72.9385" y2="80.0313" gradientUnits="userSpaceOnUse">
<stop offset="0.3061" stop-color="white"/>
<stop offset="1" stop-color="white"/>
</linearGradient>
<linearGradient id="paint2_linear" x1="25" y1="11.5" x2="40" y2="36" gradientUnits="userSpaceOnUse">
<stop stop-color="#B0F4FF"/>
<stop offset="0.368525" stop-color="#80E4FD"/>
<stop offset="1" stop-color="#6CDDFC"/>
</linearGradient>
<linearGradient id="paint3_linear" x1="25.2906" y1="40.2072" x2="74.1355" y2="40.2072" gradientUnits="userSpaceOnUse">
<stop stop-color="#6CBCFC"/>
<stop offset="1" stop-color="#458DFC"/>
</linearGradient>
<linearGradient id="paint4_linear" x1="49.3248" y1="17.5844" x2="74.1355" y2="17.5844" gradientUnits="userSpaceOnUse">
<stop stop-color="#6CBCFC"/>
<stop offset="1" stop-color="#458DFC"/>
</linearGradient>
<linearGradient id="paint5_linear" x1="49.3248" y1="25.2616" x2="67.1256" y2="25.2616" gradientUnits="userSpaceOnUse">
<stop stop-color="#6CBCFC"/>
<stop offset="1" stop-color="#458DFC"/>
</linearGradient>
<linearGradient id="paint6_linear" x1="25.2906" y1="48.8317" x2="74.1355" y2="48.8317" gradientUnits="userSpaceOnUse">
<stop stop-color="#6CBCFC"/>
<stop offset="1" stop-color="#458DFC"/>
</linearGradient>
<linearGradient id="paint7_linear" x1="25.2906" y1="57.4562" x2="74.1355" y2="57.4562" gradientUnits="userSpaceOnUse">
<stop stop-color="#6CBCFC"/>
<stop offset="1" stop-color="#458DFC"/>
</linearGradient>
<linearGradient id="paint8_linear" x1="25.2906" y1="66.0807" x2="74.1355" y2="66.0807" gradientUnits="userSpaceOnUse">
<stop stop-color="#6CBCFC"/>
<stop offset="1" stop-color="#458DFC"/>
</linearGradient>
<linearGradient id="paint9_linear" x1="25.2906" y1="74.7052" x2="74.1355" y2="74.7052" gradientUnits="userSpaceOnUse">
<stop stop-color="#6CBCFC"/>
<stop offset="1" stop-color="#458DFC"/>
</linearGradient>
<linearGradient id="paint10_linear" x1="25.2906" y1="83.3297" x2="74.1355" y2="83.3297" gradientUnits="userSpaceOnUse">
<stop stop-color="#6CBCFC"/>
<stop offset="1" stop-color="#458DFC"/>
</linearGradient>
</defs>
</svg>
